<?xml version="1.0" encoding="utf-8"?>
<!-- Generator: Adobe Illustrator 16.0.4, SVG Export Plug-In . SVG Version: 6.00 Build 0)  -->
<!DOCTYPE svg PUBLIC "-//W3C//DTD SVG 1.1//EN" "http://www.w3.org/Graphics/SVG/1.1/DTD/svg11.dtd">
<svg version="1.1" id="Layer_1" xmlns="http://www.w3.org/2000/svg" xmlns:xlink="http://www.w3.org/1999/xlink" x="0px" y="0px"
	 width="300px" height="300px" viewBox="0 0 300 300" enable-background="new 0 0 300 300" xml:space="preserve">
<radialGradient id="SVGID_1_" cx="149.7666" cy="150.7686" r="148.9992" gradientUnits="userSpaceOnUse">
	<stop  offset="0" style="stop-color:#FFEA42"/>
	<stop  offset="1" style="stop-color:#FFC43D"/>
</radialGradient>
<path fill-rule="evenodd" clip-rule="evenodd" fill="url(#SVGID_1_)" d="M149.755,299.08c-13.619,0.09-27.027-1.66-40.07-5.462
	c-34.903-10.173-62.87-30.054-83.326-60.278c-11.556-17.079-19.161-35.788-22.843-56.026c-5.088-27.964-2.474-55.288,7.974-81.734
	c6.779-17.162,16.623-32.342,29.273-45.928C55.271,34.069,72.131,22.03,91.534,13.66c22.652-9.771,46.473-13.798,71.06-11.488
	c9.673,0.909,19.337,2.988,28.729,5.546c12.247,3.331,23.905,8.396,34.813,15.01c13.432,8.146,25.273,18.112,35.684,29.945
	c12.32,14.004,21.416,29.823,27.836,47.194c2.18,5.901,3.182,12.228,4.919,18.303c3.031,10.592,4.065,21.446,3.95,32.372
	c-0.077,7.215-0.675,14.46-1.624,21.615c-0.757,5.718-1.82,11.523-3.761,16.926c-3.961,11.031-7.78,22.244-13.16,32.6
	c-7.954,15.307-18.909,28.648-31.879,40.067c-18.598,16.37-39.832,28.127-64.179,33.346c-11.185,2.397-22.688,3.315-34.046,4.904
	C149.834,299.693,149.794,299.388,149.755,299.08z M60.207,234.338c1.575,0.102,3.176,0.062,4.722,0.331
	c3.159,0.55,4.377,2.237,4.405,5.768c-7.357-3.471-9.23-3.31-12.096,1.302c1.817-0.112,3.466-0.266,5.117-0.307
	c3.62-0.09,6.551,3.042,6.181,6.557c-0.221,2.097-1.472,3.422-3.484,3.44c-1.186,0.01-2.38-0.852-4.293-1.607
	c2.175-1.171,3.271-1.762,4.368-2.354c0.013-0.28,0.026-0.563,0.041-0.845c-1.275-0.124-2.887-0.792-3.752-0.256
	c-1.632,1.01-3.667,2.676-2.248,4.898c1.032,1.616,2.899,3.422,4.613,3.678c1.714,0.255,4.328-0.812,5.425-2.193
	c1.76-2.213,2.891-2.371,4.78-0.494c5.795,5.753,11.665,11.433,17.431,17.216c0.699,0.702,1.034,1.824,1.379,2.808
	c0.996,2.836,2.839,3.57,5.728,2.593c1.51-0.513,3.242-0.766,4.821-0.607c6.563,0.653,12.543,4.3,19.369,3.831
	c0.67-0.044,1.381,0.836,2.111,1.211c0.712,0.364,1.486,0.608,2.214,0.948c1.211,0.564,2.408,1.166,3.612,1.753
	c-0.919,1.537-1.636,3.264-2.829,4.549c-0.729,0.787-2.189,0.893-3.519,1.377c5.782,3.33,9.977,1.681,12.541-3.805
	c3.813-8.156,9.752-12.456,19.256-8.617c2.578,1.042,3.674,3.164,3.101,5.603c-0.269,1.144-2.005,2.35-3.31,2.733
	c-1.405,0.416-3.112,0.037-4.633-0.269c-0.774-0.156-1.427-0.914-2.137-1.398c0.475-0.6,0.885-1.269,1.446-1.768
	c0.394-0.35,0.993-0.468,1.785-0.812c-1.959-1.438-3.417-2.056-5.18-0.224c-3.354,3.487-3.338,8.588,0.393,14.249
	c0.807-0.423,1.637-0.858,2.467-1.294c-0.341-0.071-0.683-0.143-1.023-0.215c-0.354-1.395-1.34-3.075-0.88-4.107
	c0.453-1.012,2.323-1.719,3.671-1.929c2.393-0.377,4.874-0.164,7.29-0.442c0.763-0.087,1.718-0.8,2.097-1.494
	c1.247-2.284,2.272-4.691,3.332-6.941c3.693,0.89,7.234,2.087,10.867,2.551c8.124,1.036,16.094,0.607,23.492-3.604
	c3.771-2.146,7.757-3.913,11.557-6.013c2.834-1.565,5.975-2.95,8.18-5.198c3.81-3.887,8.274-7.314,10.628-12.465
	c0.309-0.674,0.434-1.431,0.644-2.149c-0.832,0.156-1.966,0.025-2.441,0.523c-1.654,1.73-3.079,3.679-4.59,5.546
	c-0.52-0.358-1.041-0.715-1.561-1.072c0.827-1.828,1.654-3.659,2.75-6.083c-4.58,2.344-8.475,4.423-12.449,6.346
	c-3.766,1.821-6.771,4.043-6.471,8.852c0.04,0.636-0.679,1.487-1.269,1.968c-5.658,4.611-11.686,8.386-19.237,9.133
	c-10.696,1.057-17.248-0.432-22.177-9.219c-1.687-0.438-3.072-0.721-4.408-1.16c-4.019-1.327-8.069-2.304-12.084-0.193
	c-2.878,1.513-5.752,3.096-8.397,4.973c-2.691,1.91-5.19,2.691-8.216,0.806c-1.125-0.702-2.561-1.273-3.856-1.275
	c-6.89-0.009-13.814-0.207-20.658,0.429c-5.292,0.492-9.044-2.189-12.618-4.957c-4.514-3.503-8.562-7.643-12.572-11.74
	c-3.75-3.833-7.692-7.549-6.94-13.913c0.366-3.095-1.597-5.804-4.69-6.952C65.084,231.25,62.387,232.037,60.207,234.338z
	 M287.556,177.112c0.645-0.918,1.218-1.446,1.438-2.098c1.253-3.686-1.051-7.707-4.888-9.558c-10.201-4.918-12.08-11.5-8.23-20.078
	c0.987-2.197,2.777-3.245,5.161-2.727c2.262,0.493,2.455,2.331,2.376,4.266c-0.043,1.06,0.188,2.141,0.054,3.184
	c-0.109,0.852-0.577,1.657-0.885,2.482c-0.671-0.367-1.332-0.756-2.016-1.098c-0.496-0.248-1.021-0.433-1.532-0.646
	c-0.214,0.555-0.651,1.128-0.602,1.658c0.242,2.684,2.167,4.038,4.49,4.155c3.441,0.175,6.91-0.23,11.126-0.422
	c-0.949-2.078-1.413-3.096-1.524-3.338c-2.101,0.591-3.67,1.545-4.875,1.203c-0.876-0.247-1.509-2.143-1.813-3.408
	c-0.289-1.199-0.009-2.537,0.022-3.813c0.141-5.736,0.136-5.72-5.187-7.776c-1.173-0.452-2.286-1.06-3.508-1.636
	c0.944-3.015,2.058-5.783,2.665-8.66c1.731-8.192,1.462-16.312-1.928-24.088c-2.112-4.844-4.519-9.561-6.775-14.344
	c-0.469-0.994-0.606-2.272-1.323-3.003c-4.232-4.303-8.536-8.541-12.949-12.659c-0.993-0.928-2.516-1.287-4.229-2.117
	c0.957,1.817,1.578,2.998,2.499,4.747c-1.726-0.272-2.59-0.409-3.771-0.597c0.056,0.88-0.119,1.734,0.185,2.353
	c2.128,4.327,4.119,8.754,6.657,12.834c1.143,1.836,3.346,3.978,5.242,4.157c3.193,0.306,4.624,2.041,6.078,4.256
	c0.93,1.419,1.837,2.853,2.765,4.273c3.901,5.982,4.893,12.594,4.245,19.562c-0.527,5.684-3.12,10.005-7.56,13.745
	c-3.321,2.798-5.036,6.973-5.341,11.548c-0.345,5.141,2.276,9.098,4.816,13.154c1.614,2.578,4.458,5.109,1.972,8.486
	c-2.349,3.19-2.366,6.707-2.31,10.34c0.06,3.831-0.161,7.685,0.188,11.488c0.538,5.861-0.37,11.23-4.434,15.665
	c-4.013,4.379-8.244,8.555-12.317,12.879c-4.116,4.37-8.582,7.565-15.122,7.16c-2.659-0.163-5.442,1.327-6.565,4.253
	c-1.069,2.786,0.004,5.193,1.652,7.495c3.065-1.77-0.558-7.242,5.145-7.617c-1.068,4.279-2.421,8.67,2.689,11.639
	c0-1.981-0.093-3.645,0.019-5.293c0.296-4.384,3.52-6.639,7.762-5.528c2.259,0.592,3.038,2.415,2.884,4.334
	c-0.074,0.935-1.501,1.759-2.59,2.928c-1.279-5.268-2.052-5.498-5.621-2.234c0.863,0.742,1.856,1.359,2.535,2.224
	c1.875,2.394,3.916,1.771,6.231,0.763c3.566-1.553,3.706-7.614,0.519-9.935c-2.537-1.848-1.95-3.048,0.059-4.89
	c4.059-3.729,7.813-7.788,11.796-11.604c2.803-2.686,5.251-5.839,9.513-6.659c0.792-0.152,1.969-2.712,1.621-3.673
	c-1.973-5.465-1.502-10.443,1.891-15.16c0.361-0.502,0.718-1.072,0.845-1.661c1.003-4.682,1.903-9.388,2.96-14.058
	c0.208-0.924,0.867-2.359,1.472-2.442c1.099-0.151,2.641,0.202,3.404,0.948C285.788,173.602,286.434,175.25,287.556,177.112z
	 M51.865,226.9c-2.946-5.437-5.518-10.399-8.309-15.236c-1.354-2.346-3.576-3.521-6.411-3.521c-0.856,0-2.021-0.355-2.519-0.97
	c-3.868-4.795-7.79-9.556-9.177-15.834c-1.094-4.947-1.247-9.692,0.375-14.657c0.974-2.98,1.371-6.029,3.998-8.137
	c6.041-4.845,8.143-13.429,4.758-20.344c-1.347-2.75-3.065-5.364-4.929-7.799c-1.906-2.492-2.004-4.685-0.864-7.642
	c1.181-3.065,1.78-6.529,1.802-9.823c0.035-5.414-0.273-10.881-1.058-16.233c-0.634-4.325,1.542-7.677,3.751-10.317
	c5.218-6.242,11.166-11.899,17.082-17.515c1.643-1.56,4.132-2.382,6.373-3.111c1.856-0.604,3.997-0.316,5.866-0.896
	c2.52-0.781,4.029-2.733,4.138-5.444c0.085-2.082,0.564-4.436-2.102-5.706c-1.313,6.965-1.926,7.765-6.114,8.16
	c3.283-7.446,2.831-10.35-1.938-11.427c0.09,0.565,0.164,1.066,0.248,1.57c0.497,2.95,0.587,5.973-2.289,7.679
	c-1.34,0.795-3.566,1.073-4.956,0.511c-1.245-0.504-2.229-2.386-2.65-3.854c-0.187-0.652,1.292-1.783,2.016-2.697
	c0.399,0.799,0.772,1.613,1.207,2.39c0.284,0.509,0.66,0.962,1.033,1.497c1.605-1.125,2.802-2.13,1.272-3.941
	c-1.31-1.555-2.487-3.25-5.003-2.01c-4.488,2.209-5.436,6.697-2.113,10.434c2.568,2.884,2.512,3.418-0.182,6.225
	c-4.193,4.369-8.219,8.906-12.542,13.142c-1.91,1.87-4.235,3.446-6.622,4.667c-2.137,1.089-2.214,2.39-1.82,4.396
	c0.476,2.433,1.061,5.01,0.712,7.393c-0.429,2.93-1.997,5.673-2.673,8.59c-1.147,4.938-1.946,9.949-2.959,14.918
	c-0.467,2.291-2.464,3.01-4.185,1.35c-1.218-1.175-1.978-2.824-3.041-4.407c-2.453,1.008-1.958,3.235-1.883,5.089
	c0.19,4.775,4.047,6.02,7.583,7.549c7.118,3.078,10.31,12.282,6.643,18.996c-1.248,2.288-3.238,3.243-5.598,2.536
	c-2.209-0.661-2.781-2.688-2.623-4.881c0.076-1.056-0.014-2.154,0.251-3.159c0.189-0.713,0.734-1.615,1.339-1.836
	c0.436-0.16,1.279,0.608,1.847,1.075c0.35,0.289,0.523,0.79,0.854,1.323c1.506-3.459,1.195-4.481-1.665-5.581
	c-4.458-1.714-8.662-1.383-12.578,1.64c0.625,0.985,1.163,1.831,1.699,2.679c0.145-0.441,0.288-0.882,0.432-1.32
	c1.135-0.35,2.278-1.012,3.403-0.978c1.932,0.057,2.652,1.407,2.598,3.301c-0.059,2.021,0.207,4.062,0.021,6.063
	c-0.239,2.585,0.946,4.028,3.203,4.821c1.874,0.658,3.774,1.241,5.356,1.756c-0.813,4.779-1.969,9.214-2.241,13.701
	c-0.442,7.255,0.026,14.438,3.982,20.976c2.276,3.758,4.235,7.719,6.173,11.67c2.941,5.989,7.755,10.255,12.844,14.27
	c1.473,1.161,3.184,2.022,4.787,3.022c0.175-0.196,0.35-0.395,0.525-0.591c-1.019-1.724-2.04-3.45-3.397-5.749
	c1.482,0.546,2.302,0.854,3.126,1.147C49.58,226.121,50.443,226.411,51.865,226.9z M147.305,9.852
	c0.48,1.955,1.484,3.748,1.055,5.08c-0.302,0.936-2.505,1.492-3.947,1.771c-1.967,0.384-4.015,0.394-6.033,0.468
	c-2.56,0.091-3.733,1.684-4.323,3.883c-0.33,1.227-0.298,2.577-0.792,3.715c-0.264,0.606-1.464,1.39-1.959,1.229
	c-5.499-1.793-10.972-2.222-16.819-1.762c-5.737,0.451-11.021,1.315-15.828,4.576c-2.622,1.777-5.198,3.917-8.129,4.888
	c-7.718,2.56-12.899,7.996-17.464,14.229c-1.709,2.333-2.984,4.984-4.459,7.49c0.237,0.156,0.475,0.312,0.711,0.469
	c1.729-1.235,3.458-2.474,5.186-3.71c0.235,0.15,0.472,0.304,0.708,0.455c-0.479,1.496-0.96,2.994-1.484,4.629
	c4.916-2.861,9.59-5.502,14.181-8.283c2.769-1.677,5.258-3.572,4.697-7.518c-0.129-0.903,0.656-2.229,1.42-2.921
	c6.419-5.814,13.374-10.537,22.566-10.385c6.217,0.104,11.96,0.708,16.622,5.977c2.092,2.364,5.982,3.532,9.277,4.354
	c6.788,1.694,12.146-1.759,17.006-5.969c3.684-3.191,4.278-3.318,8.724-1.365c1.417,0.622,3.064,1.131,4.576,1.061
	c6.795-0.312,13.589-0.734,20.364-1.348c5.247-0.475,9.257,2.166,13.136,4.939c2.916,2.088,5.495,4.669,8.108,7.153
	c3.285,3.12,6.715,6.15,9.553,9.649c1.317,1.623,1.625,4.228,1.957,6.449c0.506,3.402,1.746,6.259,5.069,7.529
	c2.49,0.954,4.886,0.397,6.958-1.818c-7.374-1.369-8.571-2.275-8.548-6.282c6.652,3.289,10.387,2.772,11.436-1.694
	c-2.034,0.095-4.056,0.411-6.033,0.229c-3.395-0.314-5.153-3.023-4.649-6.716c0.354-2.587,2.295-4.223,4.934-3.758
	c0.861,0.152,1.545,1.305,2.309,2.002c-0.701,0.566-1.364,1.192-2.115,1.687c-0.468,0.306-1.067,0.417-1.792,0.684
	c1.343,2.163,2.825,2.13,4.352,0.818c1.837-1.578,1.878-3.646,0.636-5.476c-2.609-3.845-7.612-3.789-10.048,0.261
	c-1.525,2.536-2.703,2.022-4.425,0.494c-4.451-3.95-8.968-7.823-13.425-11.765c-2.39-2.114-5.118-3.796-5.703-7.533
	c-0.402-2.563-3.223-3.553-5.595-2.241c-4.099,2.265-8.11,0.723-12.07-0.039c-6.177-1.185-12.25-2.899-18.422-4.112
	c-2.7-0.529-3.715-1.662-2.096-3.944c1.153-1.629,3.083-2.708,5.158-4.442c-1.508-0.385-2.855-1.05-4.182-1.011
	c-4.271,0.13-6.582,2.583-7.902,6.605c-2.697,8.216-11.246,12.005-18.989,8.751c-2.306-0.97-3.201-2.77-3.126-5.051
	c0.08-2.448,2.06-2.618,3.905-2.838c0.738-0.087,1.495-0.437,2.196-0.338c1.227,0.177,2.417,0.605,3.621,0.929
	c-0.444,1.088-0.89,2.178-1.567,3.836c1.271-0.173,3.302,0.124,3.781-0.602c3.096-4.69,2.624-9.514-0.607-14.258
	C148.377,9.277,147.564,9.712,147.305,9.852z M75.558,82.142c-0.029,0.152-0.057,0.307-0.085,0.458
	c0.834-0.109,1.667-0.219,1.691-0.224C77.183,82.381,76.37,82.261,75.558,82.142z"/>
</svg>
