<?xml version="1.0" encoding="utf-8"?>
<!-- Generator: Adobe Illustrator 16.0.4, SVG Export Plug-In . SVG Version: 6.00 Build 0)  -->
<!DOCTYPE svg PUBLIC "-//W3C//DTD SVG 1.1//EN" "http://www.w3.org/Graphics/SVG/1.1/DTD/svg11.dtd">
<svg version="1.1" id="Layer_1" xmlns="http://www.w3.org/2000/svg" xmlns:xlink="http://www.w3.org/1999/xlink" x="0px" y="0px"
	 width="300px" height="300px" viewBox="0 0 300 300" enable-background="new 0 0 300 300" xml:space="preserve">
<path fill="#3A074F" d="M247.707,120.226c0,56.454-98.221,166.911-98.221,166.911S43.267,176.68,43.267,120.226
	c0-56.455,45.766-102.221,102.22-102.221C201.941,18.005,247.707,63.771,247.707,120.226z"/>
<path fill="#2A073A" d="M247.707,120.226c0-56.455-45.766-102.221-102.221-102.221c-0.162,0-0.324,0.005-0.486,0.006v264.354
	c2.854,3.074,4.486,4.772,4.486,4.772S247.707,176.68,247.707,120.226z"/>
<path fill-rule="evenodd" clip-rule="evenodd" fill="#FFC43D" stroke="#FFC43D" stroke-miterlimit="10" d="M112.873,68.156
	c-11.887,0.799-23.77,1.602-37.211,2.504c19.933-16.666,41.412-15.016,63.69-11.656c-7.982-8.601-18.918-11.071-30.556-14.398
	c22.045-6.284,38.181-0.44,64.063,22.325c0.639-0.411,1.278-0.82,1.917-1.229c-6.035-9.195-12.072-18.391-17.809-27.133
	c14.468-0.221,25.967,13.812,39.514,49.435c0.78-0.062,1.561-0.122,2.343-0.186c-0.905-11.337-1.81-22.673-2.817-35.308
	c1.654,1.411,4.262,2.793,5.646,4.955c9.5,14.857,11.471,30.99,7.396,47.992c-0.492,2.051-1.125,4.068-1.835,6.601
	c5.185-1.561,5.185-1.561,15.718-27.68c6.16,18.507-0.494,38.03-22.703,64.247c13.327-3.477,21.818-11.074,30.209-21.036
	c-1.823,19.272-14.609,29.763-50.628,43.298c0.043,0.828,0.086,1.656,0.129,2.486c11.758-0.818,23.515-1.637,34.818-2.424
	c-7.622,10.918-25.343,14.175-65.428,11.552c-0.295,0.711-0.59,1.421-0.885,2.13c11.658,4.85,23.316,9.697,33.815,14.064
	c-24.334,5.322-44.172-5.704-61.137-24.714c-0.779,0.702-1.561,1.405-2.34,2.107c3.565,7.964,7.13,15.927,10.571,23.614
	c-9.192,1.631-24.406-17.593-34.453-46.723c-1.588,7.76-3.516,13.197-3.582,18.655c-0.063,5.364,1.765,10.749,1.731,16.261
	c-14.867-18.962-13.185-40.176-7.289-61.966c-1.004-0.319-2.012-0.642-3.017-0.963c-4.675,10.182-9.347,20.363-13.522,29.456
	c-2.376-7.494-2.359-19.541,2.85-30.521c4.737-9.986,11.37-19.072,16.753-30.319c-8.784,4.845-17.569,9.689-27.731,15.297
	c5.142-11.328,12.376-19.69,22.022-25.218c9.396-5.385,19.76-9.075,29.699-13.509C112.835,69.487,112.853,68.823,112.873,68.156z"/>
<path fill="#EFB135" d="M182.408,198.695c-10.499-4.367-22.032-9.215-33.69-14.064c0.295-0.709,0.652-1.419,0.947-2.13
	c40.085,2.623,57.837-0.634,65.459-11.552c-11.304,0.787-23.045,1.605-34.803,2.424c-0.043-0.83-0.078-1.658-0.121-2.486
	c36.019-13.535,48.809-24.025,50.632-43.298c-8.391,9.962-16.88,17.56-30.207,21.036c22.209-26.217,28.864-45.74,22.704-64.247
	c-10.533,26.119-10.532,26.119-15.718,27.68c0.711-2.532,1.344-4.55,1.836-6.601c4.074-17.002,2.104-33.135-7.396-47.992
	c-1.384-2.162-3.991-3.544-5.646-4.955c1.008,12.635,1.912,23.971,2.817,35.308c-0.782,0.063-1.562,0.124-2.343,0.186
	c-13.547-35.623-25.046-49.655-39.514-49.435c5.736,8.742,11.773,17.938,17.809,27.133c-0.639,0.409-1.528,0.818-2.167,1.229
	C162.915,58.054,155,51.76,146,47.745v146.37C157,199.617,169.098,201.606,182.408,198.695z"/>
<g>
	<path fill="#B80C09" d="M102.781,119.677c0,24.168,19.219,43.83,43.219,44.559V75.118C122,75.848,102.781,95.509,102.781,119.677z"
		/>
	<path fill="#A30C0C" d="M191.77,119.677c0-24.629-19.865-44.593-44.494-44.593c-0.461,0-1.275,0.021-1.275,0.034v89.117
		c0,0.014,0.814,0.034,1.275,0.034C171.904,164.27,191.77,144.306,191.77,119.677z"/>
</g>
</svg>
