<?xml version="1.0" encoding="utf-8"?>
<!-- Generator: Adobe Illustrator 16.0.4, SVG Export Plug-In . SVG Version: 6.00 Build 0)  -->
<!DOCTYPE svg PUBLIC "-//W3C//DTD SVG 1.1//EN" "http://www.w3.org/Graphics/SVG/1.1/DTD/svg11.dtd">
<svg version="1.1" id="Layer_1" xmlns="http://www.w3.org/2000/svg" xmlns:xlink="http://www.w3.org/1999/xlink" x="0px" y="0px"
	 width="300px" height="300px" viewBox="0 0 300 300" enable-background="new 0 0 300 300" xml:space="preserve">
<path fill="#CCCCCC" d="M247.707,120.226c0,56.454-98.221,166.911-98.221,166.911S43.267,176.68,43.267,120.226
	c0-56.455,45.766-102.221,102.22-102.221C201.941,18.005,247.707,63.771,247.707,120.226z"/>
<path fill="#B3B3B3" d="M248.733,120.226c0,49.464-79.247,145.153-99.247,166.911L147,18.011
	C203,18.273,248.733,63.934,248.733,120.226z"/>
<path fill-rule="evenodd" clip-rule="evenodd" fill="#3D5118" d="M177.479,95.637c0-16.568-13.432-30-30-30s-30,13.432-30,30
	c0,11.623,6.615,21.627,16.281,26.608L123.479,195h48l-10.281-72.755C170.863,117.264,177.479,107.26,177.479,95.637z"/>
<path fill="#313F12" d="M161.197,122.245c9.666-4.981,16.281-14.985,16.281-26.608c0-16.568-13.432-30-30-30
	c-0.161,0-0.318,0.01-0.479,0.012V195h24.479L161.197,122.245z"/>
</svg>
