<?xml version="1.0" encoding="utf-8"?>
<!-- Generator: Adobe Illustrator 16.0.4, SVG Export Plug-In . SVG Version: 6.00 Build 0)  -->
<!DOCTYPE svg PUBLIC "-//W3C//DTD SVG 1.1//EN" "http://www.w3.org/Graphics/SVG/1.1/DTD/svg11.dtd">
<svg version="1.1" id="Layer_1" xmlns="http://www.w3.org/2000/svg" xmlns:xlink="http://www.w3.org/1999/xlink" x="0px" y="0px"
	 width="704.145px" height="704.145px" viewBox="0 0 704.145 704.145" enable-background="new 0 0 704.145 704.145"
	 xml:space="preserve">
<path fill-rule="evenodd" clip-rule="evenodd" fill="#B80C09" d="M374.103,685.367c-28.976,0.189-57.5-3.532-85.251-11.622
	c-74.261-21.647-133.764-63.944-177.285-128.252C86.98,509.16,70.8,469.35,62.965,426.293C52.14,366.8,57.701,308.663,79.93,252.396
	c14.423-36.513,35.367-68.81,62.282-97.718c30.866-33.15,66.737-58.764,108.021-76.574c48.193-20.791,98.877-29.353,151.186-24.44
	c20.581,1.934,41.143,6.356,61.127,11.797c26.054,7.093,50.859,17.863,74.066,31.937c28.579,17.332,53.771,38.536,75.922,63.713
	c26.213,29.793,45.565,63.446,59.226,100.409c4.639,12.554,6.769,26.017,10.467,38.942c6.447,22.537,8.647,45.627,8.401,68.876
	c-0.163,15.348-1.438,30.765-3.455,45.985c-1.61,12.164-3.872,24.518-8.001,36.013c-8.428,23.468-16.552,47.327-28.001,69.36
	c-16.923,32.566-40.23,60.951-67.826,85.243c-39.568,34.832-84.746,59.848-136.549,70.951c-23.796,5.101-48.27,7.053-72.435,10.434
	C374.272,686.671,374.188,686.02,374.103,685.367z"/>
<radialGradient id="SVGID_1_" cx="374.1289" cy="369.8184" r="317.0111" gradientUnits="userSpaceOnUse">
	<stop  offset="0" style="stop-color:#FFEA42"/>
	<stop  offset="1" style="stop-color:#FFC43D"/>
</radialGradient>
<path fill-rule="evenodd" clip-rule="evenodd" fill="url(#SVGID_1_)" d="M374.103,685.367c-28.976,0.189-57.5-3.532-85.251-11.622
	c-74.261-21.647-133.764-63.944-177.285-128.252C86.98,509.16,70.8,469.35,62.965,426.293C52.14,366.8,57.701,308.663,79.93,252.396
	c14.423-36.513,35.367-68.81,62.282-97.718c30.866-33.15,66.737-58.764,108.021-76.574c48.193-20.791,98.877-29.353,151.186-24.44
	c20.581,1.934,41.143,6.356,61.127,11.797c26.054,7.093,50.859,17.863,74.066,31.937c28.579,17.332,53.771,38.536,75.922,63.713
	c26.213,29.793,45.565,63.446,59.226,100.409c4.639,12.554,6.769,26.017,10.467,38.942c6.447,22.537,8.647,45.627,8.401,68.876
	c-0.163,15.348-1.438,30.765-3.455,45.985c-1.61,12.164-3.872,24.518-8.001,36.013c-8.428,23.468-16.552,47.327-28.001,69.36
	c-16.923,32.566-40.23,60.951-67.826,85.243c-39.568,34.832-84.746,59.848-136.549,70.951c-23.796,5.101-48.27,7.053-72.435,10.434
	C374.272,686.671,374.188,686.02,374.103,685.367z M183.579,547.619c3.352,0.215,6.757,0.134,10.047,0.705
	c6.72,1.167,9.312,4.76,9.374,12.27c-15.654-7.383-19.639-7.039-25.736,2.773c3.867-0.24,7.373-0.567,10.887-0.654
	c7.7-0.189,13.938,6.473,13.148,13.947c-0.47,4.462-3.13,7.281-7.412,7.321c-2.523,0.023-5.064-1.812-9.135-3.418
	c4.628-2.494,6.959-3.75,9.293-5.008c0.027-0.599,0.057-1.198,0.086-1.797c-2.713-0.264-6.141-1.685-7.983-0.546
	c-3.472,2.148-7.803,5.694-4.783,10.423c2.195,3.438,6.169,7.281,9.813,7.823c3.648,0.543,9.21-1.728,11.545-4.665
	c3.744-4.71,6.15-5.046,10.169-1.056c12.331,12.243,24.818,24.328,37.086,36.633c1.487,1.491,2.201,3.882,2.935,5.973
	c2.119,6.034,6.042,7.6,12.188,5.516c3.213-1.09,6.896-1.627,10.256-1.293c13.964,1.389,26.688,9.151,41.209,8.155
	c1.428-0.097,2.938,1.776,4.493,2.573c1.517,0.777,3.162,1.295,4.711,2.018c2.578,1.204,5.125,2.48,7.685,3.727
	c-1.954,3.276-3.48,6.949-6.019,9.683c-1.552,1.672-4.658,1.899-7.485,2.929c12.302,7.084,21.228,3.576,26.683-8.095
	c8.111-17.355,20.748-26.505,40.969-18.333c5.484,2.217,7.816,6.732,6.598,11.917c-0.572,2.435-4.266,5.001-7.043,5.818
	c-2.989,0.881-6.621,0.08-9.856-0.572c-1.647-0.332-3.038-1.944-4.547-2.978c1.011-1.271,1.884-2.696,3.078-3.76
	c0.836-0.744,2.111-0.994,3.797-1.729c-4.168-3.057-7.272-4.371-11.021-0.472c-7.134,7.42-7.102,18.27,0.837,30.312
	c1.716-0.899,3.481-1.825,5.248-2.75c-0.727-0.151-1.453-0.305-2.178-0.456c-0.752-2.971-2.851-6.544-1.87-8.741
	c0.964-2.152,4.943-3.655,7.81-4.104c5.093-0.8,10.37-0.347,15.511-0.938c1.623-0.188,3.655-1.704,4.461-3.181
	c2.654-4.86,4.835-9.98,7.09-14.772c7.858,1.897,15.391,4.445,23.121,5.432c17.284,2.205,34.24,1.29,49.982-7.668
	c8.023-4.565,16.504-8.324,24.588-12.791c6.031-3.333,12.714-6.281,17.406-11.065c8.105-8.266,17.603-15.561,22.611-26.516
	c0.656-1.435,0.925-3.045,1.371-4.574c-1.771,0.335-4.184,0.056-5.195,1.114c-3.518,3.682-6.549,7.828-9.764,11.797
	c-1.107-0.76-2.215-1.52-3.322-2.279c1.761-3.893,3.52-7.785,5.852-12.941c-9.744,4.986-18.033,9.414-26.487,13.502
	c-8.012,3.874-14.404,8.602-13.767,18.831c0.084,1.354-1.445,3.165-2.698,4.188c-12.04,9.811-24.864,17.843-40.932,19.431
	c-22.759,2.251-36.697-0.918-47.184-19.613c-3.587-0.934-6.537-1.533-9.378-2.47c-8.55-2.82-17.167-4.901-25.711-0.409
	c-6.123,3.219-12.237,6.586-17.865,10.578c-5.726,4.064-11.042,5.727-17.479,1.715c-2.394-1.494-5.449-2.709-8.205-2.713
	c-14.658-0.02-29.393-0.443-43.951,0.909c-11.259,1.047-19.242-4.655-26.846-10.549c-9.605-7.445-18.219-16.255-26.75-24.976
	c-7.977-8.155-16.366-16.06-14.766-29.598c0.777-6.588-3.397-12.351-9.979-14.794C193.958,541.05,188.218,542.725,183.579,547.619z
	 M667.29,425.865c1.371-1.954,2.59-3.08,3.06-4.464c2.665-7.839-2.237-16.397-10.401-20.332
	c-21.704-10.462-25.7-24.469-17.511-42.718c2.1-4.677,5.909-6.908,10.981-5.803c4.812,1.048,5.222,4.959,5.054,9.076
	c-0.091,2.254,0.401,4.557,0.116,6.771c-0.233,1.813-1.228,3.527-1.885,5.285c-1.427-0.783-2.833-1.609-4.289-2.337
	c-1.053-0.526-2.171-0.922-3.26-1.375c-0.454,1.178-1.384,2.399-1.281,3.528c0.515,5.71,4.611,8.589,9.554,8.839
	c7.319,0.369,14.7-0.489,23.672-0.896c-2.018-4.422-3.005-6.587-3.242-7.104c-4.469,1.261-7.808,3.287-10.37,2.562
	c-1.866-0.525-3.214-4.559-3.86-7.251c-0.615-2.553-0.019-5.396,0.048-8.114c0.3-12.203,0.288-12.171-11.034-16.545
	c-2.495-0.965-4.862-2.255-7.464-3.479c2.009-6.415,4.378-12.308,5.67-18.43c3.681-17.428,3.111-34.702-4.103-51.248
	c-4.495-10.306-9.614-20.34-14.414-30.516c-0.998-2.116-1.29-4.837-2.814-6.389c-9.006-9.157-18.161-18.174-27.551-26.935
	c-2.113-1.974-5.354-2.74-8.996-4.509c2.035,3.871,3.356,6.384,5.315,10.104c-3.672-0.582-5.51-0.873-8.021-1.27
	c0.118,1.872-0.254,3.688,0.393,5.003c4.528,9.208,8.762,18.626,14.165,27.308c2.429,3.904,7.117,8.462,11.15,8.844
	c6.794,0.648,9.839,4.343,12.932,9.057c1.979,3.017,3.909,6.067,5.881,9.091c8.302,12.727,10.409,26.796,9.032,41.622
	c-1.122,12.087-6.638,21.283-16.082,29.24c-7.067,5.953-10.714,14.833-11.366,24.57c-0.732,10.94,4.842,19.355,10.248,27.988
	c3.436,5.484,9.486,10.87,4.196,18.055c-4.998,6.787-5.034,14.271-4.915,21.997c0.127,8.151-0.344,16.353,0.398,24.446
	c1.143,12.468-0.787,23.892-9.435,33.328c-8.537,9.315-17.54,18.202-26.206,27.402c-8.757,9.297-18.259,16.095-32.174,15.232
	c-5.658-0.349-11.577,2.822-13.967,9.046c-2.276,5.931,0.009,11.051,3.514,15.947c6.522-3.762-1.186-15.406,10.945-16.205
	c-2.271,9.104-5.15,18.447,5.722,24.76c0-4.214-0.197-7.752,0.04-11.259c0.63-9.329,7.487-14.126,16.514-11.761
	c4.808,1.26,6.462,5.135,6.137,9.221c-0.158,1.985-3.196,3.742-5.512,6.227c-2.719-11.206-4.364-11.697-11.957-4.751
	c1.834,1.577,3.948,2.891,5.392,4.731c3.99,5.091,8.331,3.766,13.259,1.622c7.587-3.301,7.884-16.203,1.104-21.139
	c-5.397-3.931-4.148-6.483,0.125-10.405c8.637-7.934,16.625-16.568,25.098-24.688c5.965-5.715,11.172-12.424,20.241-14.168
	c1.687-0.323,4.188-5.768,3.448-7.814c-4.196-11.627-3.197-22.22,4.023-32.255c0.767-1.065,1.526-2.281,1.796-3.533
	c2.137-9.964,4.05-19.974,6.298-29.911c0.443-1.963,1.846-5.018,3.134-5.195c2.338-0.324,5.616,0.428,7.241,2.019
	C663.528,418.395,664.901,421.904,667.29,425.865z M165.832,531.795c-6.267-11.565-11.738-22.127-17.676-32.418
	c-2.882-4.991-7.609-7.489-13.642-7.489c-1.821,0-4.299-0.755-5.357-2.065c-8.231-10.199-16.575-20.329-19.526-33.687
	c-2.328-10.526-2.653-20.624,0.797-31.187c2.071-6.342,2.916-12.827,8.506-17.312c12.854-10.309,17.324-28.57,10.124-43.283
	c-2.864-5.849-6.52-11.412-10.485-16.593c-4.058-5.302-4.265-9.966-1.84-16.26c2.512-6.519,3.787-13.889,3.834-20.897
	c0.074-11.52-0.581-23.151-2.251-34.54c-1.35-9.2,3.282-16.331,7.98-21.951c11.102-13.28,23.756-25.314,36.345-37.264
	c3.495-3.318,8.791-5.064,13.559-6.618c3.946-1.288,8.505-0.675,12.481-1.907c5.36-1.662,8.57-5.814,8.803-11.583
	c0.18-4.431,1.199-9.438-4.472-12.141c-2.796,14.816-4.1,16.519-13.01,17.36c6.984-15.842,6.023-22.019-4.125-24.311
	c0.191,1.203,0.35,2.273,0.529,3.341c1.057,6.275,1.248,12.708-4.87,16.336c-2.851,1.691-7.587,2.284-10.545,1.089
	c-2.647-1.072-4.743-5.075-5.638-8.198c-0.398-1.39,2.751-3.796,4.29-5.741c0.849,1.698,1.643,3.431,2.568,5.085
	c0.603,1.078,1.401,2.045,2.196,3.185c3.414-2.394,5.961-4.53,2.706-8.388c-2.786-3.304-5.292-6.913-10.646-4.275
	c-9.548,4.7-11.564,14.251-4.494,22.198c5.462,6.138,5.344,7.273-0.388,13.245c-8.921,9.295-17.488,18.947-26.683,27.959
	c-4.063,3.983-9.01,7.337-14.089,9.927c-4.547,2.319-4.709,5.088-3.872,9.359c1.013,5.174,2.257,10.655,1.515,15.729
	c-0.912,6.232-4.247,12.07-5.688,18.274c-2.438,10.501-4.141,21.169-6.296,31.738c-0.994,4.875-5.241,6.405-8.903,2.871
	c-2.591-2.499-4.208-6.007-6.47-9.374c-5.219,2.144-4.167,6.883-4.009,10.825c0.406,10.161,8.611,12.811,16.136,16.062
	c15.145,6.547,21.934,26.133,14.134,40.416c-2.655,4.866-6.891,6.897-11.911,5.394c-4.699-1.407-5.917-5.719-5.58-10.384
	c0.163-2.247-0.031-4.581,0.534-6.718c0.403-1.518,1.562-3.442,2.85-3.911c0.927-0.337,2.722,1.296,3.931,2.292
	c0.743,0.611,1.112,1.679,1.815,2.811c3.204-7.357,2.544-9.532-3.542-11.872c-9.486-3.646-18.428-2.942-26.762,3.487
	c1.331,2.097,2.475,3.898,3.617,5.699c0.306-0.938,0.611-1.873,0.917-2.81c2.414-0.744,4.848-2.151,7.238-2.079
	c4.111,0.122,5.645,2.995,5.529,7.025c-0.125,4.299,0.44,8.639,0.045,12.898c-0.51,5.5,2.012,8.572,6.812,10.259
	c3.986,1.399,8.03,2.64,11.397,3.737c-1.73,10.166-4.189,19.6-4.769,29.147c-0.94,15.436,0.056,30.719,8.475,44.628
	c4.842,7.997,9.009,16.427,13.133,24.83c6.255,12.742,16.498,21.818,27.326,30.358c3.135,2.473,6.774,4.306,10.185,6.433
	c0.372-0.419,0.744-0.838,1.117-1.257c-2.17-3.67-4.34-7.341-7.23-12.232c3.155,1.161,4.898,1.817,6.652,2.442
	C160.971,530.14,162.808,530.755,165.832,531.795z M368.892,69.999c1.021,4.161,3.158,7.977,2.244,10.81
	c-0.643,1.993-5.33,3.176-8.397,3.771c-4.186,0.813-8.544,0.836-12.836,0.991c-5.447,0.196-7.944,3.582-9.199,8.264
	c-0.699,2.606-0.633,5.481-1.684,7.899c-0.563,1.295-3.115,2.96-4.17,2.616c-11.699-3.814-23.344-4.728-35.785-3.749
	c-12.206,0.96-23.447,2.798-33.676,9.736c-5.577,3.783-11.061,8.335-17.296,10.401c-16.423,5.444-27.443,17.011-37.157,30.273
	c-3.636,4.964-6.35,10.604-9.485,15.936c0.505,0.332,1.009,0.665,1.513,0.998c3.677-2.632,7.354-5.264,11.031-7.896
	c0.502,0.321,1.004,0.645,1.507,0.967c-1.021,3.187-2.044,6.374-3.158,9.851c10.458-6.087,20.403-11.704,30.169-17.623
	c5.891-3.569,11.189-7.601,9.994-15.994c-0.273-1.923,1.396-4.744,3.022-6.215c13.657-12.369,28.453-22.419,48.013-22.094
	c13.228,0.219,25.447,1.506,35.364,12.715c4.451,5.031,12.727,7.515,19.739,9.265c14.443,3.604,25.84-3.743,36.18-12.7
	c7.839-6.791,9.104-7.061,18.562-2.905c3.016,1.325,6.519,2.406,9.735,2.259c14.458-0.665,28.914-1.563,43.327-2.868
	c11.163-1.014,19.695,4.606,27.948,10.512c6.205,4.438,11.692,9.931,17.252,15.214c6.989,6.64,14.287,13.089,20.324,20.534
	c2.802,3.454,3.458,8.99,4.161,13.719c1.076,7.24,3.717,13.315,10.785,16.021c5.299,2.029,10.396,0.845,14.806-3.869
	c-15.688-2.914-18.236-4.842-18.187-13.367c14.152,6.999,22.099,5.899,24.33-3.602c-4.325,0.199-8.628,0.873-12.835,0.483
	c-7.222-0.666-10.964-6.432-9.891-14.288c0.752-5.503,4.882-8.983,10.497-7.994c1.831,0.324,3.286,2.779,4.913,4.26
	c-1.491,1.209-2.904,2.536-4.501,3.586c-0.996,0.653-2.27,0.888-3.812,1.456c2.858,4.602,6.01,4.53,9.258,1.741
	c3.909-3.356,3.997-7.755,1.354-11.649c-5.551-8.179-16.195-8.062-21.378,0.557c-3.244,5.394-5.749,4.302-9.415,1.049
	c-9.469-8.403-19.081-16.646-28.564-25.031c-5.085-4.496-10.888-8.076-12.133-16.028c-0.854-5.452-6.856-7.558-11.904-4.767
	c-8.719,4.82-17.256,1.536-25.68-0.081c-13.142-2.522-26.063-6.171-39.195-8.75c-5.744-1.129-7.903-3.537-4.461-8.395
	c2.455-3.465,6.561-5.761,10.974-9.45c-3.206-0.818-6.074-2.233-8.897-2.148c-9.088,0.275-14.004,5.495-16.813,14.053
	c-5.739,17.48-23.925,25.538-40.4,18.617c-4.907-2.062-6.81-5.891-6.653-10.743c0.172-5.211,4.383-5.573,8.311-6.039
	c1.57-0.187,3.179-0.93,4.672-0.718c2.609,0.371,5.142,1.286,7.704,1.974c-0.945,2.315-1.894,4.633-3.336,8.159
	c2.706-0.364,7.024,0.268,8.045-1.277c6.586-9.979,5.582-20.24-1.291-30.338C371.173,68.78,369.443,69.704,368.892,69.999z
	 M216.24,223.809c-0.061,0.323-0.121,0.647-0.182,0.972c1.775-0.233,3.55-0.466,3.6-0.473
	C219.698,224.312,217.97,224.061,216.24,223.809z"/>
<g>
	<g>
		<path fill="#B80C09" d="M199.183,278.11v28.759c0,7.828-3.518,13.575-10.563,17.258c-5.714,3.049-13.342,4.575-22.89,4.575
			c-5.322,0-10.681-0.467-16.083-1.405l0.706-8.216c2.347,0.234,4.771,0.35,7.279,0.35c7.744,0,14.085-0.898,19.017-2.698
			c6.414-2.351,9.702-6.106,9.861-11.272l0.352-20.307h-14.438c-1.804-0.23-3.602-0.46-5.403-0.694
			c-1.874-0.691-2.818-2.155-2.818-4.388v-2.077L199.183,278.11z"/>
		<path fill="#B80C09" d="M260.109,317.082c0,2.67-1.099,4.8-3.285,6.398c-1.881,1.448-3.876,2.171-5.99,2.171h-35.095
			c-2.115,0-4.11-0.723-5.991-2.171c-2.189-1.599-3.285-3.729-3.285-6.398V278.23h21.014v-4.228l11.619-1.176v5.403h21.014V317.082z
			 M247.198,317.082V286.8h-27.822v30.282H247.198z"/>
		<path fill="#B80C09" d="M329.715,278.697v41.906c-9.471,6.105-18.198,9.158-26.175,9.158c-9.63,0-18.826-2.818-27.587-8.451
			v-35.805c-1.774-0.232-3.547-0.469-5.324-0.705c-1.771-0.703-2.658-2.188-2.658-4.461v-2.109l20.893-0.12v37.095
			c1.948,1.019,3.856,1.994,5.729,2.933c3.116,1.408,6.079,2.111,8.884,2.111c4.521,0,9.039-1.717,13.56-5.159v-36.393H329.715z"/>
		<path fill="#B80C09" d="M392.747,324.714c-4.425,0.703-8.494,1.054-12.224,1.054c-17.08,0-25.5-6.726-25.266-20.189h-5.473v20.189
			h-12.912v-47.07h55.874v18.078c0.075,2.661-0.979,4.854-3.168,6.574c-1.876,1.487-3.911,2.229-6.105,2.229h-15.376
			c0,7.752,5.116,11.621,15.348,11.621c2.094,0,4.961-0.191,8.606-0.587L392.747,324.714z M379.836,295.839v-8.571h-30.051v8.571
			H379.836z"/>
		<path fill="#B80C09" d="M468.697,332.575c-2.814,0.55-5.311,0.821-7.492,0.821c-6.091,0-11.949-2.463-17.57-7.396
			c-6.32-5.557-13.933-15.49-22.828-29.812v28.878l-12.919,1.173v-40.734c-1.797-0.232-3.598-0.469-5.397-0.705
			c-1.798-0.703-2.696-2.188-2.696-4.461v-2.109h22.249c8.666,15.803,18.662,30.361,29.984,43.664V278.23h11.622v47.771
			c1.093,0.239,1.758,0.315,1.991,0.239c1.252-0.394,2.076-0.63,2.469-0.703L468.697,332.575z"/>
		<path fill="#B80C09" d="M526.8,296.658c0,2.738-1.093,4.972-3.274,6.691c-1.877,1.409-3.864,2.11-5.972,2.11h-29.959v11.507
			h38.269l-2.584,8.57h-39.326c-2.111,0-4.106-0.727-5.985-2.174c-2.19-1.6-3.287-3.732-3.287-6.396v-38.27h39.558v-4.694
			l11.625-1.176v14.322h-38.269v8.569H526.8V296.658z"/>
		<path fill="#B80C09" d="M592.535,278.464v28.405c0,7.828-3.521,13.575-10.565,17.258c-5.716,3.049-13.383,4.575-23.008,4.575
			c-5.243,0-10.566-0.467-15.967-1.405l0.592-8.216c3.688,0.234,7.144,0.35,10.362,0.35c17.113,0,25.671-4.188,25.671-12.563
			l-37.536-0.349c-2.122,0-4.122-0.741-6.002-2.229c-2.201-1.645-3.296-3.834-3.296-6.574V278.11l12.907-0.116v18.664h33.927
			v-18.311L592.535,278.464z"/>
	</g>
	<g>
		<path fill="#B80C09" d="M198.48,413.249v14.317h-38.269v29.818h38.269l-2.582,8.567h-39.323c-2.115,0-4.106-0.722-5.986-2.168
			c-2.19-1.601-3.288-3.733-3.288-6.399v-38.269h39.561v-4.696L198.48,413.249z"/>
		<path fill="#B80C09" d="M270.201,465.952h-12.09v-19.484c-3.588,0.94-7.877,1.407-12.863,1.407
			c-5.146,0-11.345-0.467-18.594-1.407v19.017l-12.915,1.171v-40.729c-1.772-0.234-3.545-0.473-5.319-0.703
			c-1.774-0.705-2.662-2.189-2.662-4.465v-2.108h20.896v17.258c9.198,1.091,19.685,1.797,31.457,2.108v-19.366h11.505
			L270.201,465.952z"/>
		<path fill="#B80C09" d="M328.66,437.075c0,2.74-1.092,4.974-3.277,6.691c-1.875,1.411-3.864,2.111-5.972,2.111h-29.959v11.507
			h38.268l-2.583,8.567h-39.324c-2.112,0-4.106-0.722-5.988-2.168c-2.189-1.601-3.284-3.733-3.284-6.399v-38.269h39.558v-4.696
			l11.622-1.171v14.317h-38.268v8.571h39.208V437.075z"/>
		<path fill="#B80C09" d="M402.258,472.995c-2.814,0.548-5.309,0.821-7.496,0.821c-6.09,0-11.948-2.464-17.565-7.396
			c-6.323-5.554-13.936-15.491-22.832-29.813v28.877l-12.916,1.171v-40.729c-1.796-0.234-3.597-0.473-5.396-0.703
			c-1.8-0.705-2.7-2.189-2.7-4.465v-2.108h22.253c8.665,15.805,18.658,30.362,29.983,43.665v-43.665h11.618v47.771
			c1.098,0.234,1.765,0.313,1.999,0.234c1.249-0.391,2.072-0.626,2.466-0.703L402.258,472.995z"/>
		<path fill="#B80C09" d="M461.769,413.249v14.438h-40.498v29.581h28.407v-11.391h-6.453c-2.113,0-4.108-0.7-5.989-2.111
			c-2.19-1.718-3.283-3.951-3.283-6.691v-0.938h27.816v21.131c0,2.666-1.097,4.796-3.286,6.396
			c-1.877,1.447-3.872,2.171-5.982,2.171l-34.864,0.116c-2.115,0-4.111-0.693-5.991-2.087c-2.191-1.693-3.288-3.894-3.288-6.597
			v-38.152h41.794v-4.696L461.769,413.249z"/>
		<path fill="#B80C09" d="M524.805,457.269c0,2.739-1.098,4.93-3.287,6.573c-1.799,1.484-3.796,2.228-5.986,2.228l-46.604,0.117
			v-47.186c5.605,2.424,15.956,3.636,31.057,3.636c4.905,0,9.188-0.234,12.849-0.701v-9.863l11.972-1.175V457.269z M512.833,431.563
			c-1.095-0.08-3.94,0-8.539,0.232c-5.224,0.311-9.198,0.468-11.929,0.468c-4.835,0-8.34-0.353-10.523-1.057v25.119h30.991V431.563z
			"/>
		<path fill="#B80C09" d="M594.408,419.116v41.906c-9.473,6.104-18.194,9.157-26.177,9.157c-9.627,0-18.821-2.814-27.585-8.453
			v-35.801c-1.77-0.234-3.547-0.473-5.322-0.703c-1.774-0.705-2.66-2.189-2.66-4.465v-2.108l20.896-0.12v37.096
			c1.947,1.018,3.855,1.992,5.728,2.934c3.116,1.41,6.079,2.109,8.884,2.109c4.521,0,9.039-1.718,13.56-5.162v-36.39H594.408z"/>
	</g>
	<g>
		<path fill="#B80C09" d="M311.577,356.386v31.226h-8.449v-31.226H311.577z"/>
		<path fill="#B80C09" d="M364.091,392.306c-1.877,0.362-3.54,0.548-4.999,0.548c-4.06,0-7.963-1.645-11.711-4.929
			c-4.214-3.707-9.286-10.331-15.221-19.882v19.255l-8.608,0.782v-27.155c-1.198-0.157-2.398-0.312-3.6-0.47
			c-1.2-0.471-1.801-1.457-1.801-2.974v-1.409h14.835c5.78,10.542,12.441,20.245,19.99,29.113v-29.113h7.747v31.853
			c0.73,0.155,1.176,0.205,1.33,0.155c0.833-0.263,1.382-0.42,1.644-0.469L364.091,392.306z"/>
		<path fill="#B80C09" d="M402.2,352.475v9.547h-15.026v25.59h-8.605v-25.59h-13.307l-0.314-5.636h29.504v-3.132L402.2,352.475z"/>
		<path fill="#B80C09" d="M440.775,381.975c0,1.779-0.729,3.201-2.188,4.267c-1.252,0.967-2.584,1.448-3.992,1.448h-23.401
			c-1.407,0-2.733-0.481-3.99-1.448c-1.459-1.065-2.19-2.487-2.19-4.267v-25.902h14.008v-2.818l7.748-0.779v3.598h14.006V381.975z
			 M432.171,381.975v-20.189h-18.546v20.189H432.171z"/>
	</g>
</g>
</svg>
